<?xml version="1.0" encoding="utf-8"?>
<!-- Generator: Adobe Illustrator 16.0.0, SVG Export Plug-In . SVG Version: 6.00 Build 0)  -->
<!DOCTYPE svg PUBLIC "-//W3C//DTD SVG 1.1//EN" "http://www.w3.org/Graphics/SVG/1.1/DTD/svg11.dtd">
<svg version="1.1" id="Layer_1" xmlns="http://www.w3.org/2000/svg" xmlns:xlink="http://www.w3.org/1999/xlink" x="0px" y="0px"
	 width="1080px" height="360px" viewBox="0 0 1080 360" enable-background="new 0 0 1080 360" xml:space="preserve">
<g>
	<defs>
		<rect id="SVGID_1_" width="1080" height="360"/>
	</defs>
	<clipPath id="SVGID_2_">
		<use xlink:href="#SVGID_1_"  overflow="visible"/>
	</clipPath>
	<path clip-path="url(#SVGID_2_)" fill-rule="evenodd" clip-rule="evenodd" fill="#FFFFFF" d="M421.446,205.115
		c-2.005,8.278-6.887,14.009-18.368,13.865c-25.182-0.389-38.27,0.727-61.385,14.029c-37.022,21.294-52.208,27.137-92.463,21.141
		c9.803-7.726,36.029-7.798,41.893-22.788c-41.75,20.496-72.806-4.094-119.917,1.668c16.781-17.61,36.213-12.566,42.823-23.791
		c-46.916,2.905-77.584-25.521-127.58-16.721c18.551-18.992,42.046-20.476,57.732-20.189c23.31,0.42,44.348,8.483,87.899-10.806
		c-7.552-4.543-20.578-4.789-39.089-0.757c-13.415,3.397-26.451,2.517-39.078-2.62c11.675-0.112,24.446-4.87,38.331-14.284
		c15.943-8.934,33.727-13.19,53.364-12.781c-0.942-7.326-16.537-3.08-26.585-11.552c20.045,2.465,26.503-6.519,48.043,0.03
		c7.234,2.2,13.343,4.789,19.575,5.024c6.927,0.277,13.947-1.402,23.739-6.088c7.706-4.809,16.956-10.898,24.999-14.868
		c-12.003,23.473-12.76,30.084-9.772,40.808c2.107-5.465,5.382-11.747,9.956-16.445c21.1,2.262,29.204,6.581,44.543,26.596
		c6.129,8.002,10.007,11.931,23.658,12.79l6.856,0.195c4.236-7.961,7.858-17.079,11.245-28.365l3.592-11.952l1.177,12.443
		c0.982,10.406,0.962,19.421,0.194,27.28l1.177-0.071c8.503-0.512,19.616-5.557,15.605,10.56
		c-2.231,8.841-5.802,19.421-10.11,25.715c-7.081-2.058-13.968-3.623-21.161-4.707c2.251-4.236,4.328-8.811,5.945-13.906
		c1.913-6.007,3.111-12.198,3.694-18.369c0.368-4.113,0.614-8.554,0.522-13.374c-1.74,4.697-3.602,9.016-5.536,13.027
		c-2.497,5.239-5.536,10.407-8.821,15.186c-4.021,5.832-8.544,11.215-13.425,16.484c-8.002,0.491-16.454,2.23-24.221,5.239
		c13.671-1.32,25.255-1.289,35.907-0.144C411.551,203.182,416.493,204.041,421.446,205.115 M368.901,161.637
		c-3.254-5.393-9.516-17.007-24.087-17.007C349.684,161.381,352.61,161.637,368.901,161.637"/>
	<path clip-path="url(#SVGID_2_)" fill-rule="evenodd" clip-rule="evenodd" fill="#FFFFFF" d="M505.709,166.404
		c7.327,0,13.569,2.6,18.737,7.808c5.167,5.198,7.756,11.563,7.756,19.094c0,7.532-2.589,13.896-7.756,19.104
		c-5.168,5.198-11.41,7.797-18.737,7.797c-9.107,0-16.024-3.766-20.741-11.286v10.059h-6.785v-71.885h6.785v30.606
		C489.685,170.17,496.602,166.404,505.709,166.404 M800.82,167.632h6.773v49.292c0,7.398-2.537,13.21-7.603,17.457
		c-5.065,4.246-11.123,6.364-18.173,6.364c-12.044,0-20.158-4.175-24.334-12.524l5.956-3.387c3.08,6.231,9.209,9.342,18.378,9.342
		c5.884,0,10.529-1.555,13.916-4.666c3.387-3.121,5.086-7.316,5.086-12.586v-8.002c-4.729,7.521-11.645,11.286-20.752,11.286
		c-7.316,0-13.568-2.599-18.736-7.797c-5.167-5.208-7.756-11.572-7.756-19.104c0-7.531,2.589-13.896,7.756-19.094
		c5.168-5.208,11.42-7.808,18.736-7.808c9.107,0,16.023,3.766,20.752,11.297V167.632z M766.213,207.734
		c3.899,3.939,8.688,5.904,14.377,5.904c5.68,0,10.468-1.965,14.377-5.904c3.899-3.939,5.854-8.738,5.854-14.428
		c0-5.678-1.954-10.488-5.854-14.428c-3.909-3.929-8.697-5.904-14.377-5.904c-5.688,0-10.478,1.975-14.377,5.904
		c-3.908,3.94-5.853,8.75-5.853,14.428C760.36,198.996,762.305,203.795,766.213,207.734 M723.39,166.404
		c6.222,0,11.133,1.904,14.734,5.7c3.592,3.797,5.393,8.913,5.393,15.349v31.527h-6.784v-31.527c0-4.584-1.218-8.145-3.643-10.673
		c-2.436-2.537-5.873-3.806-10.324-3.806c-4.922,0-8.934,1.566-12.014,4.676c-3.08,3.111-4.615,7.92-4.615,14.429v26.901h-6.784
		v-51.348h6.784v8.013C709.964,169.484,715.715,166.404,723.39,166.404 M678.202,167.632h6.784v51.348h-6.784V167.632z
		 M637.271,212.411h29.572v6.569h-38.945v-4.522l28.538-40.246h-27.516v-6.58h36.931v4.493L637.271,212.411z M608.804,167.632h6.774
		v51.348h-6.774v-10.059c-4.728,7.521-11.645,11.286-20.753,11.286c-7.315,0-13.567-2.599-18.735-7.797
		c-5.167-5.208-7.756-11.572-7.756-19.104c0-7.531,2.589-13.896,7.756-19.094c5.168-5.208,11.42-7.808,18.735-7.808
		c9.108,0,16.025,3.766,20.753,11.297V167.632z M574.197,207.734c3.898,3.939,8.688,5.904,14.377,5.904
		c5.679,0,10.468-1.965,14.377-5.904c3.898-3.939,5.853-8.738,5.853-14.428c0-5.678-1.954-10.488-5.853-14.428
		c-3.909-3.929-8.698-5.904-14.377-5.904c-5.689,0-10.479,1.975-14.377,5.904c-3.909,3.94-5.854,8.75-5.854,14.428
		C568.344,198.996,570.288,203.795,574.197,207.734 M543.489,144.017h6.784v74.964h-6.784V144.017z M490.821,207.734
		c3.898,3.939,8.688,5.904,14.376,5.904c5.68,0,10.469-1.965,14.378-5.904c3.898-3.939,5.852-8.738,5.852-14.428
		c0-5.678-1.954-10.488-5.852-14.428c-3.909-3.929-8.698-5.904-14.378-5.904c-5.688,0-10.478,1.975-14.376,5.904
		c-3.909,3.94-5.853,8.75-5.853,14.428C484.968,198.996,486.912,203.795,490.821,207.734"/>
	<path clip-path="url(#SVGID_2_)" fill-rule="evenodd" clip-rule="evenodd" fill="#FFFFFF" d="M850.513,166.196
		c5.477,0,10.046,1.882,13.708,5.647c3.662,3.766,5.494,8.968,5.494,15.609v31.523h-15.403v-29.265c0-3.012-0.838-5.322-2.516-6.932
		c-1.677-1.608-3.816-2.413-6.418-2.413c-2.943,0-5.271,0.891-6.982,2.67c-1.711,1.78-2.566,4.416-2.566,7.907v28.032h-15.403
		v-71.879h15.403v25.364C838.908,168.284,843.804,166.196,850.513,166.196"/>
	<path clip-path="url(#SVGID_2_)" fill-rule="evenodd" clip-rule="evenodd" fill="#FFFFFF" d="M924.239,212.559
		c-5.271,5.236-11.706,7.854-19.304,7.854c-7.599,0-14.034-2.618-19.306-7.854c-5.271-5.237-7.906-11.655-7.906-19.254
		s2.636-14.017,7.906-19.253c5.271-5.237,11.707-7.855,19.306-7.855c7.598,0,14.033,2.618,19.304,7.855
		c5.271,5.237,7.907,11.655,7.907,19.253S929.511,207.321,924.239,212.559 M896.515,202.033c2.26,2.259,5.065,3.389,8.421,3.389
		c3.354,0,6.16-1.13,8.42-3.389c2.259-2.26,3.388-5.169,3.388-8.729s-1.129-6.469-3.388-8.729c-2.26-2.259-5.066-3.388-8.42-3.388
		c-3.355,0-6.161,1.129-8.421,3.388c-2.259,2.26-3.389,5.169-3.389,8.729S894.256,199.773,896.515,202.033"/>
	<path clip-path="url(#SVGID_2_)" fill-rule="evenodd" clip-rule="evenodd" fill="#FFFFFF" d="M978.56,167.633h14.992v48.776
		c0,8.077-2.636,14.188-7.907,18.329c-5.271,4.142-11.672,6.212-19.201,6.212c-11.569,0-19.682-4.142-24.336-12.425l13.143-7.599
		c2.328,4.313,6.229,6.469,11.706,6.469c3.629,0,6.47-0.94,8.523-2.823s3.08-4.604,3.08-8.163v-4.724
		c-3.56,4.449-8.557,6.674-14.992,6.674c-7.188,0-13.194-2.55-18.021-7.649s-7.24-11.243-7.24-18.432s2.414-13.332,7.24-18.432
		s10.833-7.65,18.021-7.65c6.436,0,11.433,2.225,14.992,6.674V167.633z M957.201,200.903c2.328,2.19,5.306,3.286,8.934,3.286
		s6.606-1.096,8.934-3.286s3.491-5.065,3.491-8.625c0-3.561-1.164-6.436-3.491-8.626s-5.306-3.286-8.934-3.286
		s-6.605,1.096-8.934,3.286c-2.327,2.19-3.491,5.065-3.491,8.626C953.71,195.838,954.874,198.713,957.201,200.903"/>
	<path clip-path="url(#SVGID_2_)" fill-rule="evenodd" clip-rule="evenodd" fill="#FFFFFF" d="M685.089,155.313
		c-0.962,0.961-2.129,1.442-3.489,1.442c-1.372,0-2.538-0.481-3.5-1.442c-0.951-0.952-1.433-2.119-1.433-3.49
		c0-1.371,0.481-2.527,1.433-3.489c0.962-0.962,2.128-1.443,3.5-1.443c1.36,0,2.527,0.481,3.489,1.443
		c0.951,0.962,1.433,2.118,1.433,3.489C686.521,153.194,686.04,154.361,685.089,155.313"/>
</g>
</svg>
